<?xml version="1.0" encoding="UTF-8" standalone="no"?>
<svg
   xmlns:dc="http://purl.org/dc/elements/1.1/"
   xmlns:cc="http://creativecommons.org/ns#"
   xmlns:rdf="http://www.w3.org/1999/02/22-rdf-syntax-ns#"
   xmlns:svg="http://www.w3.org/2000/svg"
   xmlns="http://www.w3.org/2000/svg"
   version="1.1"
   x="0px"
   y="0px"
   width="300px"
   height="300px"
   viewBox="0 0 300 300"
   enable-background="new 0 0 300 300"
   xml:space="preserve"
   id="svg2"><metadata
   id="metadata15"><rdf:RDF><cc:Work
       rdf:about=""><dc:format>image/svg+xml</dc:format><dc:type
         rdf:resource="http://purl.org/dc/dcmitype/StillImage" /><dc:title></dc:title></cc:Work></rdf:RDF></metadata><defs
   id="defs19" />

<path
   id="path17"
   d="M 150.01672,7.3327641 A 22.547342,23.07415 0 0 0 128.71203,27.543701 22.547342,23.07415 0 0 0 148.23547,53.26831 22.547342,23.07415 0 0 0 173.44445,33.381592 l 0.0391,-0.330078 A 22.547342,23.07415 0 0 0 153.77844,7.4714351 22.547342,23.07415 0 0 0 150.01672,7.3327641 Z m 0.30078,6.4609369 a 16.225658,16.604763 0 0 1 2.70703,0.09961 16.225658,16.604763 0 0 1 14.17969,18.408204 l -0.0273,0.238281 a 16.225658,16.604763 0 0 1 -18.14063,14.3125 16.225658,16.604763 0 0 1 -14.05078,-18.513672 16.225658,16.604763 0 0 1 15.33203,-14.544922 z"
   style="opacity:1;vector-effect:none;fill:#000000;fill-opacity:1;stroke:none;stroke-width:0.64848703px;stroke-linecap:butt;stroke-linejoin:miter;stroke-miterlimit:4;stroke-dasharray:none;stroke-dashoffset:0;stroke-opacity:1" /><g
   id="g11">
	<g
   id="g7">
		<g
   id="g8">
			
			<path
   d="m 37.452,36.425 c 3.331,-7.194 10.536,-12.764 18.561,-13.284 4.974,0.693 9.321,3.64 12.869,7.058 7.527,7.25 13.274,16.265 17.021,26.001 1.341,3.764 2.674,7.731 1.928,11.778 16.583,14.843 33.311,29.529 49.947,44.315 4.176,3.476 7.952,7.433 12.315,10.68 3.584,-1.3 6.887,-3.566 10.797,-3.973 10.725,-1.638 22.055,5.765 24.434,16.443 1.929,5.618 -0.118,11.53 -2.688,16.573 24.97,22.278 50.24,44.203 75.033,66.665 4.035,0.64 8.096,1.097 12.136,1.722 -0.198,1.962 -0.403,3.927 -0.61,5.893 -79.752,-10.771 -159.455,-21.962 -239.183,-32.934 0.181,-2.006 0.375,-4.008 0.584,-6.006 72.404,10.081 144.858,19.828 217.229,30.123 -7.158,-6.064 -14.059,-12.424 -21.127,-18.59 -4.531,3.697 -8.617,8.556 -14.604,9.824 -5.048,0.601 -10.362,0.355 -15.012,-1.891 -8.769,-3.557 -15.065,-11.21 -19.685,-19.202 -2.135,-4.012 -4.125,-9.274 -1.192,-13.396 1.366,-3.338 5.593,-4.107 8.625,-2.693 5.469,1.398 8.061,6.958 10.071,11.704 2.617,6.225 6.895,13.065 13.994,14.534 4.337,0.916 8.094,-2.041 11.518,-4.235 -13.631,-12.612 -27.8,-24.646 -41.578,-37.104 -5.948,4.752 -14.209,6.958 -21.559,4.43 -9.679,-2.688 -16.518,-12.905 -15.384,-22.866 0.468,-3.846 2.373,-7.276 4.192,-10.623 -14.381,-12.617 -28.759,-25.25 -42.942,-38.087 0.075,4.072 0.077,8.226 1.391,12.131 2.325,7.38 3.594,15.151 7.138,22.099 4.934,10.276 12.105,19.896 21.937,25.915 2.48,2.685 3.447,7.089 1.013,10.152 -3.659,5.242 -11.65064,4.98416 -16.512,1.89277 C 103.12086,151.94266 99.57,134.002 97.918,117.066 97.713,107.003 97.251,96.68 100.237,86.932 95.002,82.115 89.612,77.47 84.297,72.742 79.261,74.824 73.634,73.626 68.869,71.399 56.654,66.759 45,59.312 37.859,48.118 35.813,44.562 35.708,40.124 37.452,36.425 Z"
   id="path12" />
			<path
   fill="none"
   stroke="#000000"
   stroke-width="0.1"
   stroke-miterlimit="10"
   d="M42.004,232.021     c11.969-1.929,24.671-2.886,36.212,1.583c10.733,3.786,18.652,13.181,29.973,15.625c19.874,4.446,38.832-8.782,58.746-5.083     c19.357,3.357,32.373,20.532,51.248,25.081c15.045,2.897,28.273-7.084,42.741-8.942c2.567,0.006,6.688-0.627,7.358,2.799     c-0.338,1.059-0.685,2.115-1.042,3.172c-5.556-0.438-10.962,0.881-16.114,2.848c-11.28,4.201-23.328,8.619-35.528,6.045     c-8.601-2.537-16.347-7.197-23.79-12.084c-9.222-6.439-19.275-12.801-30.84-13.434c-13.629-0.219-26.382,5.725-39.91,6.462     c-5.767,0.25-11.696,0.378-17.221-1.554c-9.76-3.191-17.381-10.445-26.632-14.654c-5.322-2.688-11.445-2.826-17.252-3.476     c-8.763,0.226-17.379,2.154-26.077,2.98c-2.826,0.38-2.774-2.911-2.739-4.824C34.553,232.981,38.351,232.699,42.004,232.021z"
   id="path14" />
			<path
   d="M42.004,232.021c11.969-1.929,24.671-2.886,36.212,1.583c10.733,3.786,18.652,13.181,29.973,15.625     c19.874,4.446,38.832-8.782,58.746-5.083c19.357,3.357,32.373,20.532,51.248,25.081c15.045,2.897,28.273-7.084,42.741-8.942     c2.567,0.006,6.688-0.627,7.358,2.799c-0.338,1.059-0.685,2.115-1.042,3.172c-5.556-0.438-10.962,0.881-16.114,2.848     c-11.28,4.201-23.328,8.619-35.528,6.045c-8.601-2.537-16.347-7.197-23.79-12.084c-9.222-6.439-19.275-12.801-30.84-13.434     c-13.629-0.219-26.382,5.725-39.91,6.462c-5.767,0.25-11.696,0.378-17.221-1.554c-9.76-3.191-17.381-10.445-26.632-14.654     c-5.322-2.688-11.445-2.826-17.252-3.476c-8.763,0.226-17.379,2.154-26.077,2.98c-2.826,0.38-2.774-2.911-2.739-4.824     C34.553,232.981,38.351,232.699,42.004,232.021z"
   id="path16" />
		</g>
	</g>
</g>
</svg>